<svg id="svg" version="1.1" xmlns="http://www.w3.org/2000/svg" viewBox="0 0 1574 361" style="display: block;"><path d="M0 0 C519.42 0 1038.84 0 1574 0 C1574 119.13 1574 238.26 1574 361 C1054.58 361 535.16 361 0 361 C0 241.87 0 122.74 0 0 Z " transform="translate(0,0)" style="fill: #FEFDFD;"/><path d="M0 0 C135.75006572 0 135.75006572 0 172.94140625 36.85546875 C187.88579097 52.66685594 187.88579097 52.66685594 189 63 C189.66 63 190.32 63 191 63 C191 64.32 191 65.64 191 67 C191.66 67 192.32 67 193 67 C197.59225513 77.37357631 197.59225513 77.37357631 197 83 C197.66 83 198.32 83 199 83 C200.97094808 87.92737019 201.1799928 91.78020872 201 97 C201.66 97 202.32 97 203 97 C203.48174737 100.62466179 203.95991383 104.24978778 204.4375 107.875 C204.63956055 109.39480469 204.63956055 109.39480469 204.84570312 110.9453125 C204.97783203 111.95078125 205.10996094 112.95625 205.24609375 113.9921875 C205.42676392 115.35899658 205.42676392 115.35899658 205.61108398 116.75341797 C205.73942627 117.82479004 205.86776855 118.89616211 206 120 C206.08700668 120.71759491 206.17401337 121.43518982 206.26365662 122.17453003 C207.00911077 128.84265472 207.16099492 135.44264391 207.16796875 142.1484375 C207.17129715 143.28221832 207.17462555 144.41599915 207.17805481 145.58413696 C207.18309017 147.96917315 207.18546419 150.35421631 207.18530273 152.73925781 C207.18748945 156.35754153 207.20568249 159.97552005 207.22460938 163.59375 C207.22754409 165.92447814 207.22952836 168.2552077 207.23046875 170.5859375 C207.23765427 171.65194183 207.24483978 172.71794617 207.25224304 173.81625366 C207.2305647 181.05909147 206.38595525 187.89668341 205 195 C204.82353439 195.93097504 204.64706879 196.86195007 204.46525574 197.82113647 C203.48655023 202.93046006 202.30542134 207.96480341 201 213 C200.34 213 199.68 213 199 213 C198.7525 214.2375 198.505 215.475 198.25 216.75 C196.57489677 224.24638396 194.82509263 231.90865378 190 238 C189.29485154 240.14733927 189.29485154 240.14733927 189 242 C188.34 242 187.68 242 187 242 C186.64421875 243.04607422 186.64421875 243.04607422 186.28125 244.11328125 C184.77556398 247.50566531 182.77110502 250.28350677 180.5 253.1875 C180.05785156 253.75484863 179.61570312 254.32219727 179.16015625 254.90673828 C156.35515855 283.6471727 124.04586497 292.87695706 89 297 C59.63 297 30.26 297 0 297 C0 198.99 0 100.98 0 0 Z " transform="translate(529,32)" style="fill: #850229;"/><path d="M0 0 C64.68 0 129.36 0 196 0 C196 12.87 196 25.74 196 39 C145.84 39.33 95.68 39.66 44 40 C43.67 69.04 43.34 98.08 43 128 C81.28 128 119.56 128 159 128 C159 141.2 159 154.4 159 168 C121.05 168 83.1 168 44 168 C44 197.04 44 226.08 44 256 C94.49 256 144.98 256 197 256 C197 269.2 197 282.4 197 296 C131.99 296 66.98 296 0 296 C0 198.32 0 100.64 0 0 Z " transform="translate(784,33)" style="fill: #840129;"/><path d="M0 0 C27.82434801 -1.00380962 61.16090811 2.84192781 82.55224609 22.578125 C84.41351617 24.37251198 86.199938 26.20955448 87.98974609 28.078125 C88.74642578 28.861875 89.50310547 29.645625 90.28271484 30.453125 C94.98974609 35.56415294 94.98974609 35.56415294 94.98974609 39.078125 C93.60668945 40.53979492 93.60668945 40.53979492 91.64208984 42.12109375 C86.31431908 46.58693289 81.45451541 51.46687021 76.55224609 56.390625 C75.6428125 57.29619141 74.73337891 58.20175781 73.79638672 59.13476562 C72.93335938 59.99908203 72.07033203 60.86339844 71.18115234 61.75390625 C70.3994165 62.53677002 69.61768066 63.31963379 68.81225586 64.1262207 C66.93445242 65.95243032 66.93445242 65.95243032 65.98974609 68.078125 C62.98974609 68.078125 62.98974609 68.078125 61.41162109 66.57421875 C60.85990234 65.89488281 60.30818359 65.21554688 59.73974609 64.515625 C58.80582031 63.41541016 58.80582031 63.41541016 57.85302734 62.29296875 C56.72503585 60.95214867 55.59734429 59.61107607 54.47021484 58.26953125 C43.59411876 46.34712719 26.90232646 40.78217556 11.14990234 39.63671875 C-11.67157422 38.71986732 -33.18360149 46.69236155 -50.01025391 62.078125 C-61.21715594 72.69519009 -67.94050594 85.03676408 -72.88525391 99.515625 C-73.15942139 100.31210449 -73.43358887 101.10858398 -73.71606445 101.92919922 C-78.37454234 116.48748496 -79.50377939 130.87096114 -79.40136719 146.06079102 C-79.385328 148.87761279 -79.40129009 151.69298774 -79.42041016 154.50976562 C-79.44072502 172.1816737 -77.21622815 189.16369527 -72.01025391 206.078125 C-71.72537109 207.026875 -71.44048828 207.975625 -71.14697266 208.953125 C-64.9174669 227.83374156 -52.09136607 244.74716467 -34.36962891 254.046875 C-2.85926043 269.74291356 33.83539202 268.17678015 66.82592773 258.14794922 C71.56099597 256.70985407 76.06804324 255.62424088 80.98974609 255.078125 C81.18552246 255.9302356 81.18552246 255.9302356 81.38525391 256.79956055 C83.71008796 266.86943063 86.03162916 276.86434988 89.29052734 286.6796875 C89.98974609 289.078125 89.98974609 289.078125 89.98974609 292.078125 C77.74138997 295.93561322 65.62659167 299.72968467 52.98974609 302.078125 C51.72573975 302.32989502 50.4617334 302.58166504 49.15942383 302.84106445 C37.19246657 305.12168137 25.52603365 305.59828712 13.36474609 305.515625 C12.39963104 305.51225128 11.43451599 305.50887756 10.44015503 305.50540161 C-22.17374665 305.34045495 -55.85378821 299.51497278 -81.01025391 277.078125 C-81.87650391 276.376875 -82.74275391 275.675625 -83.63525391 274.953125 C-99.12390803 261.92857494 -110.52345261 242.4278551 -116.01025391 223.078125 C-116.21134766 222.37816406 -116.41244141 221.67820313 -116.61962891 220.95703125 C-116.78978516 220.35761719 -116.95994141 219.75820312 -117.13525391 219.140625 C-117.89921912 216.19658934 -117.89921912 216.19658934 -118.93994141 213.98828125 C-121.73550745 206.38719841 -122.67704918 198.04016095 -124.01025391 190.078125 C-124.1968457 188.96872559 -124.1968457 188.96872559 -124.38720703 187.83691406 C-130.29015606 150.49280838 -127.13062551 107.85763394 -112.01025391 73.078125 C-111.72843262 72.42537598 -111.44661133 71.77262695 -111.15625 71.10009766 C-98.26870719 41.91632456 -74.79796793 20.36039486 -45.32666016 8.609375 C-30.63998934 3.42398423 -15.53962338 0.60392027 0 0 Z " transform="translate(1145.01025390625,27.921875)" style="fill: #85032A;"/><path d="M0 0 C1.18274506 -0.00570007 2.36549011 -0.01140015 3.58407593 -0.01727295 C6.07654954 -0.02665601 8.56903518 -0.03323002 11.06152344 -0.03710938 C14.77823041 -0.04672569 18.4943618 -0.07777818 22.2109375 -0.109375 C38.73323252 -0.18004983 54.83820127 0.99480065 71.2109375 3.203125 C70.58108178 16.63711072 68.98537648 29.87563597 67.2109375 43.203125 C64.2732809 43.06004742 61.33584263 42.91371089 58.3984375 42.765625 C57.17737305 42.70665039 57.17737305 42.70665039 55.93164062 42.64648438 C51.62972794 42.42717118 47.35417278 42.13041316 43.06835938 41.69604492 C37.4582771 41.1800622 31.893137 41.02546719 26.26171875 41 C25.24659714 40.99429993 24.23147552 40.98859985 23.18559265 40.98272705 C21.0452069 40.97334169 18.90480711 40.96676904 16.7644043 40.96289062 C13.57638437 40.95328454 10.38903846 40.92223939 7.20117188 40.890625 C-3.55638407 40.83448398 -14.12316168 41.22926425 -24.80859375 42.53125 C-26.26563972 42.70633087 -26.26563972 42.70633087 -27.75212097 42.88494873 C-37.58705578 44.21275745 -46.03106927 46.82933803 -53.7890625 53.203125 C-58.07703806 58.83109292 -58.6491431 65.31211779 -57.7890625 72.203125 C-56.37220735 76.57491871 -54.27541363 79.2855063 -50.359375 81.703125 C-47.5429822 83.04350458 -44.72831547 84.16106238 -41.7890625 85.203125 C-40.97050781 85.49960938 -40.15195313 85.79609375 -39.30859375 86.1015625 C-33.52327454 88.0079809 -27.70595922 88.91243325 -21.671875 89.67578125 C-18.7890625 90.203125 -18.7890625 90.203125 -16.85546875 91.1875 C-13.86368269 92.65794306 -10.89523082 92.90616638 -7.6015625 93.390625 C0.2408627 94.6470637 7.82090204 96.60943598 15.4609375 98.765625 C16.5439917 99.07072998 17.6270459 99.37583496 18.74291992 99.69018555 C23.33526399 101.00769382 27.79427621 102.36982209 32.2109375 104.203125 C32.2109375 104.863125 32.2109375 105.523125 32.2109375 106.203125 C32.7471875 106.23148437 33.2834375 106.25984375 33.8359375 106.2890625 C46.0693708 107.77800011 59.13899074 117.1805207 67.2109375 126.203125 C77.39990185 139.31307913 78.63508319 155.23170588 77.2109375 171.203125 C75.96479671 180.49102769 73.68053901 189.46601363 68.2109375 197.203125 C67.71980469 197.94691406 67.22867188 198.69070313 66.72265625 199.45703125 C54.81798881 216.24857888 32.90099137 223.17586911 13.44833374 226.70420837 C-2.75999018 229.17161181 -18.88234695 229.67412952 -35.25390625 229.59423828 C-39.15400297 229.57816645 -43.05305945 229.59418728 -46.953125 229.61328125 C-67.84826713 229.63070784 -88.20952652 227.78308439 -108.7890625 224.203125 C-108.19455073 210.44735275 -106.52495655 196.85512333 -104.7890625 183.203125 C-97.95716737 183.04896942 -91.48781107 183.64321291 -84.7265625 184.578125 C-29.78364635 192.70051702 -29.78364635 192.70051702 22.2109375 178.890625 C26.72162099 175.33708654 29.74760975 169.9857024 30.44921875 164.2578125 C30.65741133 158.14352527 29.73313715 153.28321793 26.2109375 148.203125 C19.00966016 142.26069908 10.23769256 140.19826667 1.3671875 138.00390625 C-0.05225452 137.6399825 -1.4713158 137.27457083 -2.89001465 136.90776062 C-6.59799617 135.95295198 -10.31045951 135.01695773 -14.02435303 134.08544922 C-18.52117643 132.95400216 -23.01247517 131.80086431 -27.5044632 130.65040112 C-31.00233483 129.754893 -34.50090845 128.86261213 -38.00231934 127.98103333 C-52.11702041 124.41139471 -65.05727859 120.25448493 -78.02734375 113.5703125 C-80.72642589 112.17873337 -80.72642589 112.17873337 -83.40234375 111.2109375 C-91.90779739 107.61943662 -98.3492408 98.75103212 -101.96386719 90.53173828 C-104.68904849 82.82195749 -105.42144842 75.91342948 -105.2890625 67.765625 C-105.27202271 65.98502686 -105.27202271 65.98502686 -105.25463867 64.16845703 C-105.07030414 55.87625646 -104.38179253 48.77858536 -100.7890625 41.203125 C-100.4384375 40.40777344 -100.0878125 39.61242187 -99.7265625 38.79296875 C-92.38895838 23.93941597 -78.84779635 14.87866408 -63.7890625 9.203125 C-43.25960304 2.33304796 -21.54402668 0.08361534 0 0 Z " transform="translate(137.7890625,102.796875)" style="fill: #020202;"/><path d="M0 0 C69.6580006 0 69.6580006 0 93.3515625 23.32421875 C94.22554687 24.20722656 95.09953125 25.09023437 96 26 C96.66773438 26.64582031 97.33546875 27.29164062 98.0234375 27.95703125 C101.88175028 31.96374067 104.55217542 36.45384885 107.1875 41.3125 C107.50879883 41.90450195 107.83009766 42.49650391 108.16113281 43.10644531 C113.04463233 52.51488337 115.64402334 61.98484162 117.1875 72.4375 C117.51310927 74.54055285 117.83988347 76.64342575 118.16796875 78.74609375 C118.30485107 79.66060303 118.4417334 80.5751123 118.58276367 81.51733398 C118.94414038 83.91862733 118.94414038 83.91862733 119.51699829 85.89892578 C120.00876974 88.03814867 120.13328936 89.90811196 120.14526367 92.09985352 C120.15164352 92.89911758 120.15802338 93.69838165 120.16459656 94.52186584 C120.16570938 95.38218918 120.1668222 96.24251251 120.16796875 97.12890625 C120.17296135 98.48446877 120.17296135 98.48446877 120.17805481 99.86741638 C120.18311901 101.78815199 120.18546329 103.7088964 120.18530273 105.62963867 C120.18745317 108.49999651 120.20551215 111.36994641 120.22460938 114.24023438 C120.25309265 123.32556547 120.05549121 132.317089 119.12109375 141.359375 C119.04440964 142.10615005 118.96772552 142.85292511 118.88871765 143.62232971 C118.03962692 150.95625194 116.16995775 157.95290419 114 165 C113.34 165 112.68 165 112 165 C111.79503906 165.77085937 111.59007812 166.54171875 111.37890625 167.3359375 C111.10949219 168.33882812 110.84007812 169.34171875 110.5625 170.375 C110.29566406 171.37273437 110.02882813 172.37046875 109.75390625 173.3984375 C109 176 109 176 108 178 C107.34 178 106.68 178 106 178 C105.79375 178.66 105.5875 179.32 105.375 180 C98.01001391 196.06906057 82.60446143 205.94947912 66.625 211.9375 C61.71028734 213.58680673 57.17028648 214.68978281 52 215 C52 215.66 52 216.32 52 217 C34.79733672 219.15033291 17.33653817 218 0 218 C0 146.06 0 74.12 0 0 Z " transform="translate(572,72)" style="fill: #FEFDFD;"/><path d="M0 0 C2.17252464 -0.00960126 4.34405838 -0.0406218 6.51635742 -0.07226562 C37.20748171 -0.30531853 65.06198914 12.3910363 86.79467773 33.74853516 C114.23568529 61.45252659 123.6121085 98.3645477 123.51660156 136.40625 C123.20413252 186.260839 101.91024701 233.21347367 69.2722168 270.24023438 C68.55163086 271.08328125 67.83104492 271.92632812 67.08862305 272.79492188 C63.43181831 277.02911684 59.64903854 280.84783802 55.3659668 284.44726562 C53.93349138 285.67395633 52.53839953 286.94530134 51.1784668 288.25195312 C20.11820441 317.87621023 -21.87566126 331.30346131 -64.02825928 330.47723389 C-72.27943096 330.23869374 -79.91979356 328.86672059 -87.7277832 326.24023438 C-88.38085449 326.02061035 -89.03392578 325.80098633 -89.70678711 325.57470703 C-115.1913754 316.68561218 -138.01117454 299.75263685 -151.7277832 276.24023438 C-152.13722168 275.5405957 -152.54666016 274.84095703 -152.96850586 274.12011719 C-164.90467659 253.36194624 -172.01656621 230.30307607 -172.7277832 206.24023438 C-172.75356445 205.55767578 -172.7793457 204.87511719 -172.8059082 204.171875 C-174.57915389 152.17144525 -154.39605148 99.3748828 -119.2902832 61.05273438 C-117.91707097 59.60312374 -116.54371355 58.15354576 -115.1550293 56.71875 C-113.67136574 55.18179028 -112.21006044 53.62521672 -110.74731445 52.06835938 C-91.40863293 31.78543604 -66.57617545 15.41028816 -39.7277832 7.24023438 C-37.92563445 6.67143118 -36.12355333 6.10241367 -34.3215332 5.53320312 C-30.89412442 4.46884937 -27.46394944 3.41650289 -24.02075195 2.40429688 C-23.3352124 2.20271973 -22.64967285 2.00114258 -21.94335938 1.79345703 C-14.67177295 -0.02223606 -7.44356322 0.01980329 0 0 Z M-33.7277832 31.24023438 C-34.39229492 31.4598584 -35.05680664 31.67948242 -35.74145508 31.90576172 C-59.16906876 39.73528351 -78.42962616 53.02989925 -96.29467773 69.89501953 C-97.60170027 71.12188395 -98.92748552 72.32868146 -100.25512695 73.53320312 C-125.39378109 97.20509624 -140.01965782 131.91762151 -146.7277832 165.24023438 C-147.0680957 166.90699219 -147.0680957 166.90699219 -147.4152832 168.60742188 C-152.89348593 200.33534603 -146.62987779 236.58110772 -128.0168457 263.19335938 C-124.53081239 267.83347198 -120.77018956 272.08170862 -116.7277832 276.24023438 C-116.08196289 276.94792969 -115.43614258 277.655625 -114.77075195 278.38476562 C-97.62713274 296.64568793 -71.85074736 303.82593359 -47.5402832 304.61523438 C-8.46918068 303.96268987 26.5322654 282.16843765 53.2722168 255.24023438 C56.48497005 251.71656951 59.41537561 248.05630691 62.2722168 244.24023438 C62.66860352 243.71880859 63.06499023 243.19738281 63.47338867 242.66015625 C86.16229601 212.67964998 99.72677945 176.02990109 99.7097168 138.30273438 C99.71045197 137.58778809 99.71118713 136.8728418 99.71194458 136.13623047 C99.65970009 116.65038982 95.78149926 98.81753583 87.2722168 81.24023438 C86.83474121 80.33192871 86.83474121 80.33192871 86.38842773 79.40527344 C77.53950405 61.36137877 64.31210321 48.49167368 47.2722168 38.24023438 C46.42014648 37.72589844 45.56807617 37.2115625 44.69018555 36.68164062 C22.29006291 24.43216981 -9.78515398 23.0825664 -33.7277832 31.24023438 Z " transform="translate(1432.727783203125,18.759765625)" style="fill: #FCFAFB;"/><path d="M0 0 C16.30634756 13.60315625 23.1344501 32.14771289 25.2265625 52.8671875 C26.32440583 82.31967418 12.29892007 109.59153923 -7.09765625 130.65625 C-7.72414063 131.35363281 -8.350625 132.05101562 -8.99609375 132.76953125 C-22.98593333 147.61240983 -42.37894793 157.22959564 -62.79296875 157.89453125 C-81.63682978 158.21874555 -96.2071766 156.4363124 -110.34765625 142.84375 C-124.61870958 127.88036075 -130.77923185 109.00977734 -130.57006836 88.58764648 C-129.76091041 64.33716064 -119.9352665 40.87704351 -104.09765625 22.65625 C-103.41058594 21.83640625 -102.72351562 21.0165625 -102.015625 20.171875 C-77.69349011 -8.05056621 -32.82021548 -24.8324455 0 0 Z " transform="translate(1461.09765625,110.34375)" style="fill: #FEFDFE;"/><path d="M0 0 C7.49247275 6.51913037 15.25937042 13.69706864 19.3984375 22.875 C19.17423926 25.52888151 18.65431323 26.61417981 16.78125 28.5234375 C16.03617188 29.09320313 15.29109375 29.66296875 14.5234375 30.25 C13.193125 31.2709375 13.193125 31.2709375 11.8359375 32.3125 C10.69091353 33.16775132 9.54496735 34.02176848 8.3984375 34.875 C7.64949219 35.43703125 6.90054688 35.9990625 6.12890625 36.578125 C3.59836674 38.47503335 1.0623141 40.36426638 -1.4765625 42.25 C-2.30913574 42.8692334 -3.14170898 43.4884668 -3.99951172 44.12646484 C-4.79373535 44.71121582 -5.58795898 45.2959668 -6.40625 45.8984375 C-7.47335205 46.68613525 -7.47335205 46.68613525 -8.56201172 47.48974609 C-10.51511705 48.81628663 -12.46600899 49.8747281 -14.6015625 50.875 C-15.26800781 50.029375 -15.93445313 49.18375 -16.62109375 48.3125 C-22.59773106 40.89560364 -28.55433305 35.11023462 -36.6015625 29.875 C-37.6328125 29.111875 -38.6640625 28.34875 -39.7265625 27.5625 C-42.97357714 25.65664358 -46.15227818 24.56582394 -49.74609375 23.48828125 C-51.6015625 22.875 -51.6015625 22.875 -52.6015625 21.875 C-59.3082034 20.88549561 -65.96026506 20.77048324 -72.7265625 20.75 C-73.57323486 20.74540771 -74.41990723 20.74081543 -75.29223633 20.73608398 C-91.83093531 20.77638689 -105.41133089 25.44154452 -117.6015625 36.875 C-123.1657133 43.13989912 -127.31973854 49.60009081 -130.1640625 57.5 C-130.57785156 58.62664062 -130.99164063 59.75328125 -131.41796875 60.9140625 C-134.45056046 70.44524141 -134.97443922 79.998559 -134.97216797 89.92504883 C-134.97652171 92.04266092 -135.01291626 94.15814734 -135.05078125 96.27539062 C-135.15713253 109.03809922 -133.03538659 121.70049127 -127.0390625 133.125 C-126.70608154 133.77557373 -126.37310059 134.42614746 -126.0300293 135.09643555 C-121.95984427 142.63056856 -116.16996571 150.13395808 -108.76953125 154.57421875 C-108.05410156 155.00347656 -107.33867187 155.43273437 -106.6015625 155.875 C-106.6015625 156.535 -106.6015625 157.195 -106.6015625 157.875 C-106.06789063 158.04515625 -105.53421875 158.2153125 -104.984375 158.390625 C-100.78171399 159.75758048 -96.67915391 161.23104717 -92.6015625 162.9375 C-80.44669854 167.8519666 -67.62811333 168.11440694 -54.6640625 168.1875 C-53.68167603 168.19342163 -53.68167603 168.19342163 -52.67944336 168.19946289 C-39.69393001 168.23533017 -26.95770092 166.95638134 -14.09008789 165.2980957 C-13.37470352 165.20623489 -12.65931915 165.11437408 -11.92225647 165.01972961 C-9.98630836 164.76755206 -8.05168699 164.50524705 -6.1171875 164.2421875 C-2.58444282 163.87321194 0.84928711 163.8112973 4.3984375 163.875 C4.97813546 167.80222245 5.54727755 171.73082846 6.10742188 175.66088867 C6.3917942 177.64123658 6.6840845 179.62044236 6.9765625 181.59960938 C8.03765927 189.08413122 8.68233554 196.31522893 8.3984375 203.875 C-13.12820746 207.44689905 -34.30772 209.07263378 -56.11801147 209.22647095 C-58.15373465 209.24187962 -60.18942278 209.26343553 -62.2250061 209.2918396 C-94.15433548 209.69276169 -127.01350985 202.64403068 -150.796875 179.90625 C-174.36928438 156.15865036 -181.53895997 124.01456917 -181.9140625 91.5 C-181.75038547 60.1034728 -173.00267829 30.4616633 -150.7890625 7.75 C-114.73007667 -27.90339169 -39.72344398 -32.44677707 0 0 Z " transform="translate(457.6015625,123.125)" style="fill: #020202;"/><path d="M0 0 C0.77730469 0.63679688 1.55460937 1.27359375 2.35546875 1.9296875 C2.99871094 2.42210938 3.64195312 2.91453125 4.3046875 3.421875 C19.22290403 15.28940006 25.77422945 33.07661762 30.35546875 50.9296875 C30.53577637 51.5371582 30.71608398 52.14462891 30.90185547 52.77050781 C31.97126449 57.86084871 31.54029368 63.25075171 31.54296875 68.4296875 C31.55521484 69.6465625 31.56746094 70.8634375 31.58007812 72.1171875 C31.63048511 103.57114599 18.64644896 131.7735334 -0.64453125 155.9296875 C-1.28390625 156.744375 -1.92328125 157.5590625 -2.58203125 158.3984375 C-7.24643593 164.04954316 -12.89083113 168.43580957 -18.64453125 172.9296875 C-19.53785156 173.67347656 -20.43117188 174.41726563 -21.3515625 175.18359375 C-33.99181479 185.3488316 -48.84830468 191.58741286 -64.64453125 194.9296875 C-65.4319873 195.10258301 -66.21944336 195.27547852 -67.03076172 195.45361328 C-86.2736643 198.95853202 -105.87140095 195.00847765 -122.015625 184.10253906 C-140.84041465 170.54823908 -151.01326776 151.23942992 -155.64453125 128.9296875 C-160.64975295 95.67351645 -150.87079303 61.49417417 -131.20703125 34.4296875 C-129.71802436 32.57041247 -128.19578838 30.73735076 -126.64453125 28.9296875 C-126.20028809 28.41003418 -125.75604492 27.89038086 -125.29833984 27.35498047 C-95.10012145 -7.60865146 -41.24991773 -32.29314091 0 0 Z M-112.51953125 37.8671875 C-124.71045918 52.05174462 -132.81508133 68.97017063 -137.64453125 86.9296875 C-137.89203125 87.826875 -138.13953125 88.7240625 -138.39453125 89.6484375 C-143.02076054 109.95244384 -139.36938978 131.26478487 -128.86425781 149.06640625 C-123.11951908 157.84219609 -115.20489308 165.36211448 -105.83203125 170.0546875 C-104.85621094 170.55226563 -103.88039063 171.04984375 -102.875 171.5625 C-94.92818249 174.92572386 -87.80526729 175.24080256 -79.26953125 175.1796875 C-78.19703125 175.18742188 -77.12453125 175.19515625 -76.01953125 175.203125 C-51.2784572 175.14292774 -32.61450296 163.88805581 -15.64453125 146.9296875 C-14.84402344 146.15238281 -14.04351563 145.37507812 -13.21875 144.57421875 C4.67356646 126.10985665 15.03529691 98.75111196 15.79296875 73.1796875 C15.02252839 53.14823816 8.26004857 33.35737869 -6.71875 19.48046875 C-41.24224745 -8.32040039 -85.33792452 9.11741116 -112.51953125 37.8671875 Z " transform="translate(1470.64453125,93.0703125)" style="fill: #F8F1F3;"/><path d="M0 0 C20.50608175 15.03044343 31.41805448 38.33153972 35.703125 62.86328125 C41.06025376 98.75995424 29.25359762 138.8830672 7.8671875 167.91015625 C4.25986829 172.47686887 0.43291043 176.83052555 -3.52734375 181.09375 C-4.9458386 182.65870512 -6.30629286 184.2774635 -7.6171875 185.93359375 C-22.77217753 204.66516143 -48.30967378 217.66989695 -71.5703125 222.34765625 C-72.19510498 222.51177002 -72.81989746 222.67588379 -73.46362305 222.8449707 C-89.32680096 226.85698866 -107.61242815 226.05897652 -122.5703125 219.34765625 C-123.25303223 219.04762695 -123.93575195 218.74759766 -124.63916016 218.43847656 C-146.86800961 208.47889615 -162.27413524 192.17561028 -171.66552734 169.73291016 C-174.28881846 162.81721824 -175.99547796 155.56514454 -177.5703125 148.34765625 C-177.83751099 147.19160889 -177.83751099 147.19160889 -178.11010742 146.01220703 C-181.35228271 127.24027012 -178.83490835 106.42474876 -173.5703125 88.34765625 C-173.37276367 87.63915527 -173.17521484 86.9306543 -172.97167969 86.20068359 C-166.60974444 63.72514207 -154.36968709 43.42203081 -138.5703125 26.34765625 C-138.07305664 25.80657227 -137.57580078 25.26548828 -137.06347656 24.70800781 C-101.28124415 -13.78328951 -46.16293071 -29.67616974 0 0 Z M-117.5703125 24.34765625 C-118.53453125 25.18039063 -119.49875 26.013125 -120.4921875 26.87109375 C-130.91233416 36.01716859 -139.6394644 46.28827361 -146.5703125 58.34765625 C-147.15063232 59.35094971 -147.15063232 59.35094971 -147.74267578 60.37451172 C-164.24574279 89.23424221 -170.37761395 121.07027583 -161.7265625 153.51171875 C-157.97056007 165.78348532 -152.15937338 176.7927572 -143.5703125 186.34765625 C-143.05210938 186.95867187 -142.53390625 187.5696875 -142 188.19921875 C-131.41535342 199.8476489 -114.34677371 207.9384298 -98.79907227 209.65332031 C-96.00722993 209.78383377 -93.23999252 209.81609367 -90.4453125 209.78515625 C-89.44395264 209.77540771 -88.44259277 209.76565918 -87.41088867 209.75561523 C-67.43917648 209.28484775 -47.1278005 202.0392912 -31.5703125 189.34765625 C-30.64992188 188.61417969 -29.72953125 187.88070312 -28.78125 187.125 C-26.87080931 185.58274397 -24.97322247 184.02440822 -23.08984375 182.44921875 C-21.65161622 181.2495809 -20.19891999 180.06580282 -18.70703125 178.93359375 C0.82156165 163.73950954 13.0863572 136.53277437 19.4296875 113.34765625 C19.60790039 112.71230957 19.78611328 112.07696289 19.96972656 111.42236328 C24.80059409 93.41114542 25.08013035 70.78705282 18.4296875 53.34765625 C17.97722083 52.06793576 17.52542232 50.78797888 17.07421875 49.5078125 C9.57809185 28.97016331 -3.88469684 13.89492327 -23.76953125 4.55859375 C-55.59685531 -9.20217398 -92.45487949 2.06783664 -117.5703125 24.34765625 Z " transform="translate(1479.5703125,79.65234375)" style="fill: #F9F3F5;"/><path d="M0 0 C2.17252464 -0.00960126 4.34405838 -0.0406218 6.51635742 -0.07226562 C37.20748171 -0.30531853 65.06198914 12.3910363 86.79467773 33.74853516 C114.23568529 61.45252659 123.6121085 98.3645477 123.51660156 136.40625 C123.20413252 186.260839 101.91024701 233.21347367 69.2722168 270.24023438 C68.55163086 271.08328125 67.83104492 271.92632812 67.08862305 272.79492188 C63.43181831 277.02911684 59.64903854 280.84783802 55.3659668 284.44726562 C53.93349138 285.67395633 52.53839953 286.94530134 51.1784668 288.25195312 C20.11820441 317.87621023 -21.87566126 331.30346131 -64.02825928 330.47723389 C-72.27943096 330.23869374 -79.91979356 328.86672059 -87.7277832 326.24023438 C-88.38085449 326.02061035 -89.03392578 325.80098633 -89.70678711 325.57470703 C-115.1913754 316.68561218 -138.01117454 299.75263685 -151.7277832 276.24023438 C-152.13722168 275.5405957 -152.54666016 274.84095703 -152.96850586 274.12011719 C-164.90467659 253.36194624 -172.01656621 230.30307607 -172.7277832 206.24023438 C-172.75356445 205.55767578 -172.7793457 204.87511719 -172.8059082 204.171875 C-174.57915389 152.17144525 -154.39605148 99.3748828 -119.2902832 61.05273438 C-117.91707097 59.60312374 -116.54371355 58.15354576 -115.1550293 56.71875 C-113.67136574 55.18179028 -112.21006044 53.62521672 -110.74731445 52.06835938 C-91.40863293 31.78543604 -66.57617545 15.41028816 -39.7277832 7.24023438 C-37.92563445 6.67143118 -36.12355333 6.10241367 -34.3215332 5.53320312 C-30.89412442 4.46884937 -27.46394944 3.41650289 -24.02075195 2.40429688 C-23.3352124 2.20271973 -22.64967285 2.00114258 -21.94335938 1.79345703 C-14.67177295 -0.02223606 -7.44356322 0.01980329 0 0 Z M-35.7277832 12.24023438 C-37.20504468 12.69272888 -38.6829085 13.14326173 -40.16137695 13.59179688 C-66.15747878 21.81029544 -88.28931865 38.55862113 -107.7277832 57.24023438 C-108.63786133 58.1090625 -109.54793945 58.97789063 -110.4855957 59.87304688 C-125.6472927 74.66381551 -137.02061528 92.52514367 -146.7277832 111.24023438 C-147.09000977 111.93729492 -147.45223633 112.63435547 -147.82543945 113.35253906 C-167.60751372 151.98598114 -174.90653217 199.67675527 -162.12084961 241.73681641 C-157.33350393 255.98981783 -150.59945535 270.79224731 -140.7277832 282.24023438 C-140.00977539 283.08199219 -139.29176758 283.92375 -138.55200195 284.79101562 C-136.32589133 287.3247063 -134.04614103 289.79087345 -131.7277832 292.24023438 C-130.62950195 293.41779297 -130.62950195 293.41779297 -129.5090332 294.61914062 C-111.96430099 312.87431094 -87.55993537 322.71159825 -62.43481445 323.61132812 C-59.80153689 323.65218246 -57.17337025 323.67860343 -54.5402832 323.67773438 C-53.50121826 323.67933563 -53.50121826 323.67933563 -52.44116211 323.68096924 C-13.42614081 323.59493955 20.05753203 307.30185121 49.2722168 282.24023438 C49.99924805 281.63566406 50.7262793 281.03109375 51.4753418 280.40820312 C55.50255551 277.00351672 59.0365514 273.40682843 62.44018555 269.38085938 C64.40581631 267.08413089 66.46107742 264.88897449 68.5222168 262.67773438 C77.67035385 252.51660089 85.54930248 241.12975294 92.2722168 229.24023438 C92.95501709 228.04213135 92.95501709 228.04213135 93.65161133 226.81982422 C101.73696021 212.46839578 107.71364077 198.06270021 112.2722168 182.24023438 C112.49876953 181.45471191 112.72532227 180.66918945 112.95874023 179.85986328 C117.33238127 164.33792869 118.68537047 149.17272978 118.6472168 133.11523438 C118.64667297 132.25306305 118.64612915 131.39089172 118.64556885 130.50259399 C118.60839357 117.68619493 118.02224447 105.57876079 114.2722168 93.24023438 C114.05259277 92.47565918 113.83296875 91.71108398 113.60668945 90.92333984 C104.91890738 61.023351 85.86281928 34.60728017 58.3671875 19.39501953 C41.16698114 10.18314293 23.89125685 6.46757347 4.5847168 6.67773438 C3.75316071 6.68166199 2.92160461 6.6855896 2.06484985 6.68963623 C-11.12227612 6.77729618 -23.16919361 8.00244904 -35.7277832 12.24023438 Z " transform="translate(1432.727783203125,18.759765625)" style="fill: #8B0E34;"/><path d="M0 0 C2.00282227 0.00314681 4.00562612 -0.02113575 6.00830078 -0.0456543 C32.4345608 -0.05867216 54.07515487 10.1676425 72.77001953 28.31567383 C73.71941406 29.17225586 73.71941406 29.17225586 74.68798828 30.04614258 C88.97344784 43.32247475 96.6841049 64.66000552 100.77001953 83.31567383 C100.9547583 84.11086426 101.13949707 84.90605469 101.32983398 85.7253418 C103.05707235 93.94027469 103.12656493 102.08888933 103.08251953 110.44067383 C103.0792868 111.54132675 103.0792868 111.54132675 103.07598877 112.66421509 C103.02478329 123.52022172 102.4963594 133.76345438 99.77001953 144.31567383 C99.57666016 145.13438965 99.38330078 145.95310547 99.18408203 146.79663086 C88.03431676 194.00246578 59.88999347 233.21607394 18.79736328 258.82348633 C3.57861173 267.9817742 -12.86363036 273.04298779 -30.22998047 276.31567383 C-31.24576172 276.51032227 -32.26154297 276.7049707 -33.30810547 276.90551758 C-57.35505625 280.28109222 -82.11304705 273.24372181 -101.91748047 259.62817383 C-125.68737715 241.28323855 -139.50512534 214.85596842 -144.22998047 185.31567383 C-146.40382249 168.25330701 -146.02620466 151.09341579 -142.22998047 134.31567383 C-141.93196533 132.97786865 -141.93196533 132.97786865 -141.62792969 131.61303711 C-138.49513104 117.88738968 -134.29623419 105.0227322 -128.22998047 92.31567383 C-127.88596191 91.59186523 -127.54194336 90.86805664 -127.1875 90.12231445 C-119.26459132 73.73722218 -108.94204145 59.31022506 -96.22998047 46.31567383 C-95.43205078 45.4674707 -94.63412109 44.61926758 -93.81201172 43.74536133 C-69.62588417 18.57285011 -35.36644768 -0.11568865 0 0 Z M-31.22998047 11.31567383 C-32.14191162 11.61812012 -33.05384277 11.92056641 -33.9934082 12.23217773 C-36.39236726 13.07664535 -38.74899073 13.98328052 -41.10498047 14.94067383 C-41.94230713 15.2805835 -42.77963379 15.62049316 -43.64233398 15.97070312 C-57.89819512 21.94757697 -69.80413113 29.99866218 -81.22998047 40.31567383 C-82.56291804 41.42031822 -83.89620028 42.52454698 -85.22998047 43.62817383 C-116.46579322 71.23191532 -136.67982399 111.87534795 -140.22998047 153.31567383 C-142.07264843 186.17005158 -134.67192915 216.47095737 -112.79248047 241.50317383 C-98.87114871 256.48991363 -79.85298686 268.30747808 -58.85864258 269.50854492 C-33.134625 270.13199333 -33.134625 270.13199333 -8.22998047 264.31567383 C-7.47458984 264.04271484 -6.71919922 263.76975586 -5.94091797 263.48852539 C13.22726343 256.3979227 29.60990465 245.99687765 44.23974609 231.79467773 C45.66860129 230.4136942 47.1208505 229.05703049 48.57470703 227.70239258 C76.56125195 200.97321417 96.3874516 160.98699626 97.89624023 122.05908203 C98.57438775 90.42726801 94.41024906 58.85973739 71.56420898 34.91162109 C55.15962263 18.49673843 34.17227019 6.71972083 10.53823853 6.5738678 C8.88320855 6.5866417 7.22822638 6.60980259 5.57348633 6.64331055 C3.07194061 6.69087498 0.57464453 6.68432198 -1.92724609 6.67114258 C-12.31179031 6.70649715 -21.36034125 8.02603918 -31.22998047 11.31567383 Z " transform="translate(1429.22998046875,45.684326171875)" style="fill: #8C1036;"/><path d="M0 0 C20.50608175 15.03044343 31.41805448 38.33153972 35.703125 62.86328125 C41.06025376 98.75995424 29.25359762 138.8830672 7.8671875 167.91015625 C4.25986829 172.47686887 0.43291043 176.83052555 -3.52734375 181.09375 C-4.9458386 182.65870512 -6.30629286 184.2774635 -7.6171875 185.93359375 C-22.77217753 204.66516143 -48.30967378 217.66989695 -71.5703125 222.34765625 C-72.19510498 222.51177002 -72.81989746 222.67588379 -73.46362305 222.8449707 C-89.32680096 226.85698866 -107.61242815 226.05897652 -122.5703125 219.34765625 C-123.25303223 219.04762695 -123.93575195 218.74759766 -124.63916016 218.43847656 C-146.86800961 208.47889615 -162.27413524 192.17561028 -171.66552734 169.73291016 C-174.28881846 162.81721824 -175.99547796 155.56514454 -177.5703125 148.34765625 C-177.83751099 147.19160889 -177.83751099 147.19160889 -178.11010742 146.01220703 C-181.35228271 127.24027012 -178.83490835 106.42474876 -173.5703125 88.34765625 C-173.37276367 87.63915527 -173.17521484 86.9306543 -172.97167969 86.20068359 C-166.60974444 63.72514207 -154.36968709 43.42203081 -138.5703125 26.34765625 C-138.07305664 25.80657227 -137.57580078 25.26548828 -137.06347656 24.70800781 C-101.28124415 -13.78328951 -46.16293071 -29.67616974 0 0 Z M-134.546875 30.07421875 C-153.72825604 51.62550015 -167.87354632 77.76158294 -172.5703125 106.34765625 C-172.74232178 107.26401855 -172.91433105 108.18038086 -173.09155273 109.12451172 C-173.88849832 114.4897721 -173.79517931 119.86009171 -173.81054688 125.27587891 C-173.82015649 127.31455838 -173.8511858 129.35218549 -173.8828125 131.390625 C-174.08101149 155.65813149 -165.36143431 176.27280959 -149.5703125 194.34765625 C-148.70599609 195.33958984 -148.70599609 195.33958984 -147.82421875 196.3515625 C-137.78852164 207.1092522 -123.73062971 213.38340314 -109.5703125 216.34765625 C-108.79365234 216.51966553 -108.01699219 216.6916748 -107.21679688 216.86889648 C-92.51377824 219.52873224 -76.75731152 217.58970942 -62.5703125 213.34765625 C-61.36375 212.99703125 -60.1571875 212.64640625 -58.9140625 212.28515625 C-25.13524186 201.32986307 0.64127815 173.23832992 16.4296875 142.34765625 C16.81253906 141.62723145 17.19539063 140.90680664 17.58984375 140.16455078 C33.04426443 110.77947451 35.23849567 77.82888961 26.5546875 46.15625 C19.56585065 24.72173697 3.74961223 7.58494944 -15.9140625 -2.90234375 C-21.30497782 -5.48390883 -26.67436365 -6.78124711 -32.5703125 -7.65234375 C-33.70533203 -7.82056641 -33.70533203 -7.82056641 -34.86328125 -7.9921875 C-73.85023836 -12.75943686 -107.6017509 2.2195546 -134.546875 30.07421875 Z " transform="translate(1479.5703125,79.65234375)" style="fill: #8B0F35;"/><path d="M0 0 C0.77730469 0.63679688 1.55460937 1.27359375 2.35546875 1.9296875 C2.99871094 2.42210938 3.64195312 2.91453125 4.3046875 3.421875 C19.22290403 15.28940006 25.77422945 33.07661762 30.35546875 50.9296875 C30.53577637 51.5371582 30.71608398 52.14462891 30.90185547 52.77050781 C31.97126449 57.86084871 31.54029368 63.25075171 31.54296875 68.4296875 C31.55521484 69.6465625 31.56746094 70.8634375 31.58007812 72.1171875 C31.63048511 103.57114599 18.64644896 131.7735334 -0.64453125 155.9296875 C-1.28390625 156.744375 -1.92328125 157.5590625 -2.58203125 158.3984375 C-7.24643593 164.04954316 -12.89083113 168.43580957 -18.64453125 172.9296875 C-19.53785156 173.67347656 -20.43117188 174.41726563 -21.3515625 175.18359375 C-33.99181479 185.3488316 -48.84830468 191.58741286 -64.64453125 194.9296875 C-65.4319873 195.10258301 -66.21944336 195.27547852 -67.03076172 195.45361328 C-86.2736643 198.95853202 -105.87140095 195.00847765 -122.015625 184.10253906 C-140.84041465 170.54823908 -151.01326776 151.23942992 -155.64453125 128.9296875 C-160.64975295 95.67351645 -150.87079303 61.49417417 -131.20703125 34.4296875 C-129.71802436 32.57041247 -128.19578838 30.73735076 -126.64453125 28.9296875 C-126.20028809 28.41003418 -125.75604492 27.89038086 -125.29833984 27.35498047 C-95.10012145 -7.60865146 -41.24991773 -32.29314091 0 0 Z M-106.64453125 16.9296875 C-107.57523438 17.72632812 -108.5059375 18.52296875 -109.46484375 19.34375 C-133.83400632 40.72616284 -149.44973713 71.12132086 -151.83349609 103.49609375 C-152.70979718 120.47798628 -150.29541335 136.60535432 -142.64453125 151.9296875 C-142.23847656 152.75339844 -141.83242187 153.57710937 -141.4140625 154.42578125 C-132.30540182 171.12054056 -117.29752498 182.25429183 -99.26953125 187.7421875 C-76.83783543 192.84030019 -51.6407376 187.54041758 -32.26074219 175.71801758 C-25.13048271 171.15268633 -18.84652773 165.66638884 -12.64453125 159.9296875 C-11.73832031 159.10597656 -10.83210938 158.28226563 -9.8984375 157.43359375 C5.3960605 142.90262763 15.77511639 123.79968682 22.35546875 103.9296875 C22.69650635 102.91092529 22.69650635 102.91092529 23.04443359 101.87158203 C29.99950311 79.9692609 29.08510358 52.28050754 19.10546875 31.6171875 C9.54457376 13.75394421 -3.96080102 0.67878795 -23.64453125 -5.29296875 C-53.46244094 -13.019224 -83.84713628 -3.02610583 -106.64453125 16.9296875 Z " transform="translate(1470.64453125,93.0703125)" style="fill: #8C1136;"/><path d="M0 0 C1.87235731 1.49838118 3.72880975 3.01703951 5.5625 4.5625 C6.54476563 5.35720703 6.54476563 5.35720703 7.546875 6.16796875 C19.50072704 16.83321747 25.67681433 34.02445009 27.5625 49.5625 C28.220986 62.79362639 28.20603669 75.75491649 24.5625 88.5625 C24.27246094 89.60083984 24.27246094 89.60083984 23.9765625 90.66015625 C19.447956 106.510279 12.63407375 121.20850457 1.5625 133.5625 C0.85351562 134.39007813 0.14453125 135.21765625 -0.5859375 136.0703125 C-17.97033874 156.0166255 -40.16952036 169.41100873 -66.859375 171.87890625 C-83.52391139 172.4632961 -99.20447882 167.13803055 -111.8125 156.125 C-113.37118988 154.62161847 -114.91433793 153.10186592 -116.4375 151.5625 C-117.06140625 150.97210938 -117.6853125 150.38171875 -118.328125 149.7734375 C-131.66662706 136.13451873 -136.71435834 114.59905668 -136.68408203 96.16943359 C-136.20417416 67.01338707 -123.84139997 37.84590449 -103.203125 17.28125 C-75.67762832 -9.25931137 -34.00206272 -24.87541667 0 0 Z M-104.3125 26.5 C-116.50342793 40.68455712 -124.60805008 57.60298313 -129.4375 75.5625 C-129.685 76.4596875 -129.9325 77.356875 -130.1875 78.28125 C-134.81372929 98.58525634 -131.16235853 119.89759737 -120.65722656 137.69921875 C-114.91248783 146.47500859 -106.99786183 153.99492698 -97.625 158.6875 C-96.64917969 159.18507813 -95.67335938 159.68265625 -94.66796875 160.1953125 C-86.72115124 163.55853636 -79.59823604 163.87361506 -71.0625 163.8125 C-69.99 163.82023438 -68.9175 163.82796875 -67.8125 163.8359375 C-43.07142595 163.77574024 -24.40747171 152.52086831 -7.4375 135.5625 C-6.63699219 134.78519531 -5.83648438 134.00789062 -5.01171875 133.20703125 C12.88059771 114.74266915 23.24232816 87.38392446 24 61.8125 C23.22955964 41.78105066 16.46707982 21.99019119 1.48828125 8.11328125 C-33.0352162 -19.68758789 -77.13089327 -2.24977634 -104.3125 26.5 Z " transform="translate(1462.4375,104.4375)" style="fill: #8C1137;"/><path d="M0 0 C0.66 0.33 1.32 0.66 2 1 C-5.92 8.92 -13.84 16.84 -22 25 C-22.66 24.67 -23.32 24.34 -24 24 C-7.94924527 6.54897172 -7.94924527 6.54897172 0 0 Z " transform="translate(1352,82)" style="fill: #EDDADF;"/><path d="M0 0 C0.66 0.33 1.32 0.66 2 1 C-5.26 8.26 -12.52 15.52 -20 23 C-20.66 22.67 -21.32 22.34 -22 22 C-6.93673978 5.53646622 -6.93673978 5.53646622 0 0 Z " transform="translate(1365,101)" style="fill: #952446;"/><path d="M0 0 C0.66 0.33 1.32 0.66 2 1 C-4.6 7.6 -11.2 14.2 -18 21 C-18.66 20.67 -19.32 20.34 -20 20 C-17.98406752 17.78702148 -15.96250115 15.57965623 -13.9375 13.375 C-13.37611328 12.75753906 -12.81472656 12.14007813 -12.23632812 11.50390625 C-8.39290663 7.33104863 -4.3703098 3.61872786 0 0 Z " transform="translate(1374,116)" style="fill: #EBD5DC;"/><path d="M0 0 C0.66 0.33 1.32 0.66 2 1 C-4.6 7.6 -11.2 14.2 -18 21 C-18.66 20.67 -19.32 20.34 -20 20 C-17.98406752 17.78702148 -15.96250115 15.57965623 -13.9375 13.375 C-13.37611328 12.75753906 -12.81472656 12.14007813 -12.23632812 11.50390625 C-8.39290663 7.33104863 -4.3703098 3.61872786 0 0 Z " transform="translate(1367,107)" style="fill: #ECD8DE;"/></svg>